<svg xmlns="http://www.w3.org/2000/svg"><symbol fill="none" id="back-arrow" viewBox="0 0 20 18"><title>back-arrow</title><path d="M7.558 16.964.314 9.718A.976.976 0 0 1 .317 8.28l7.241-7.244A.977.977 0 1 1 8.94 2.42L3.338 8.022H18.43a.977.977 0 0 1 0 1.955H3.338l5.602 5.604a.978.978 0 0 1-1.382 1.383Z" fill="currentcolor"/></symbol><symbol fill="none" id="calendar" viewBox="0 0 17 16"><title>calendar</title><path d="M4.805 2.937c0 .445-.356.8-.8.8a.798.798 0 0 1-.801-.8V.8c0-.445.356-.801.8-.801.445 0 .801.356.801.8v2.137ZM12.636.8a.797.797 0 0 0-.8-.801.798.798 0 0 0-.802.8v2.137c0 .445.356.8.801.8a.797.797 0 0 0 .801-.8V.8Zm3.382 2.029v12.298c0 .48-.392.872-.89.872H.89a.877.877 0 0 1-.89-.872V2.83c0-.48.392-.872.89-.872h1.78v.979c0 .765.57 1.37 1.334 1.37.766 0 1.335-.623 1.335-1.37v-.98h5.162v.98c0 .765.569 1.37 1.334 1.37.766 0 1.335-.623 1.335-1.37v-.98h1.94c.48 0 .908.392.908.873Zm-1.424 3.203c0-.178-.16-.338-.356-.338H1.78c-.196 0-.356.143-.356.338v8.223c0 .178.16.338.356.338h12.458c.196 0 .356-.142.356-.338V6.033Z" fill="#1C2B39"/></symbol><symbol id="chevron" viewBox="0 0 16 10"><title>chevron</title><path d="M7.29 9.21v-.001L.293 2.208A1 1 0 0 1 1.705.793L8 7.091 14.295.792A1 1 0 0 1 15.613.71l.094.083a1 1 0 0 1 0 1.414L8.71 9.209l-.095.083a.995.995 0 0 1-.553.208h-.124a.995.995 0 0 1-.648-.29z" fill="currentColor" fill-rule="evenodd"/></symbol><symbol id="cross" viewBox="0 0 22 22"><title>cross</title><path d="m1.808 1.807 18.384 18.385m0-18.385L1.808 20.192" stroke="currentColor" stroke-width="2" fill="none" fill-rule="evenodd" stroke-linecap="round"/></symbol><symbol id="double-chevron" viewBox="0 0 16 14"><title>double-chevron</title><g stroke="currentColor" stroke-width="2" fill="none" fill-rule="evenodd" stroke-linecap="round" stroke-linejoin="round"><path d="m1 1 8 5.999L1 13"/><path d="m7 1 8 5.999L7 13"/></g></symbol><symbol id="download" viewBox="0 0 14 17"><title>download</title><path d="M6.93 12a.994.994 0 0 1-.646-.29L2.283 7.704a1 1 0 0 1 1.411-1.413L5.991 8.59V.998a.998.998 0 0 1 1.997 0v7.595l2.3-2.301a.998.998 0 1 1 1.411 1.413l-4.001 4.004a.994.994 0 0 1-.647.291zM1 17a1 1 0 0 1-1-1v-3a1 1 0 0 1 .883-.993L1 12a1 1 0 0 1 1 1v2h9.991v-2a1 1 0 0 1 .884-.993l.117-.007a1 1 0 0 1 1 1v2.872A1 1 0 0 1 13 17H1z" fill="currentColor" fill-rule="evenodd"/></symbol><symbol id="external-link" viewBox="0 0 16 16"><title>external-link</title><g fill="currentColor"><rect width="2" height="16" rx="1"/><rect width="6" height="2" rx="1"/><rect x="8" width="8" height="2" rx="1"/><rect transform="rotate(90 8 15)" x="7" y="7" width="2" height="16" rx="1"/><path d="M16 11v4a1 1 0 0 1-2 0v-4a1 1 0 0 1 2 0Zm0-9.667v5.334C16 7.403 15.552 8 15 8s-1-.597-1-1.333V1.333C14 .597 14.448 0 15 0s1 .597 1 1.333Z"/><rect transform="rotate(45 10.051 5.949)" x="9.051" y="-1.05" width="2" height="13.998" rx="1"/></g></symbol><symbol id="facebook" viewBox="0 0 10 16"><title>facebook</title><path d="m8.723 9 .444-2.895H6.39V4.228c0-.793.388-1.565 1.632-1.565h1.262V.196S8.14 0 7.041 0C4.755 0 3.258 1.387 3.258 3.897v2.208H.716v2.894h2.542V16h3.129V9h2.336z" fill="currentColor" fill-rule="evenodd"/></symbol><symbol id="filter-cross" viewBox="0 0 15 16"><title>filter-cross</title><path d="m1.855 2.355 11.29 11.29m0-11.29-11.29 11.29" stroke="currentColor" stroke-width="2" fill="none" fill-rule="evenodd" stroke-linecap="round" stroke-linejoin="round"/></symbol><symbol id="filters-chevron" viewBox="0 0 16 10"><title>filters-chevron</title><path d="M7.29 9.21v-.001L.293 2.208A1 1 0 0 1 1.705.793L8 7.091 14.295.792A1 1 0 0 1 15.613.71l.094.083a1 1 0 0 1 0 1.414L8.71 9.209l-.095.083a.995.995 0 0 1-.553.208h-.124a.995.995 0 0 1-.648-.29z" fill="#1C2B39" fill-rule="evenodd"/></symbol><symbol id="forward-arrow" viewBox="0 0 26 22"><title>forward-arrow</title><path d="m15.708.296 9.982 9.983a.997.997 0 0 1 0 1.448l-9.982 9.983a1 1 0 1 1-1.414-1.415l8.29-8.292H1a1 1 0 0 1 0-2l21.584-.001-8.29-8.292A1 1 0 0 1 15.708.296z" fill="currentColor" fill-rule="evenodd"/></symbol><symbol id="ifg-logo" viewBox="0 0 241 64"><title>ifg-logo</title><path d="M132.327 37.128c-2.895.01-5.087-2.247-5.096-5.227-.012-3.062 2.126-5.292 5.083-5.301 2.916-.01 5.127 2.184 5.136 5.267.01 2.897-2.165 5.251-5.123 5.26m-.022-13.184c-4.358.013-7.85 3.47-7.835 7.967.015 4.339 3.51 7.909 7.848 7.894 4.378-.016 7.969-3.59 7.952-7.968-.013-4.378-3.589-7.908-7.965-7.893m107.743-3.719v-2.747h-7.144V11.27h5.509v-2.8h-5.509V3.072h7.196V.218h-10.612v20.006zM218.384 3.285v16.94h3.415V3.284h4.801V.218h-13.022v3.067zm-15.38 14.193h-.008c-1.417 0-2.534-.487-3.28-1.281-.755-.794-1.134-1.882-1.134-3.058V.217h-3.415v13.026c.028 4.27 2.319 7.357 7.891 7.384 5.173-.017 7.652-3.359 7.675-7.597L210.73.217h-3.415v12.709c0 1.173-.274 2.307-.962 3.16-.69.854-1.793 1.392-3.34 1.392h-.01zM184.139 3.285v16.94h3.417V3.284h4.803V.218h-13.024v3.067zm-10.997 16.941h3.417V.219h-3.417zM162.145 3.285v16.94h3.417V3.284h4.802V.22h-13.022v3.065zm-47.668 16.941h3.417V.219h-3.417zM72.062 63.535v-2.75h-7.147v-6.207h5.512v-2.799h-5.512v-5.4h7.2v-2.854H61.5v20.01zm-24.049-.002h3.252l7.992-20.01H55.72l-6.01 15.743-5.624-15.743h-3.804zm-17.76-2.867c-3.935-.006-6.906-3.096-6.91-7.111v-.02c0-2.061.724-3.858 1.958-5.136 1.233-1.279 2.971-2.037 4.972-2.037h-.007.017c1.973 0 3.719.75 4.964 2.026 1.25 1.276 1.994 3.075 1.994 5.152-.006 3.925-2.973 7.12-6.988 7.126zm.026-17.556c-5.728.002-10.322 4.515-10.324 10.43.01 5.7 4.575 10.399 10.27 10.406 5.753-.007 10.474-4.682 10.484-10.431-.01-5.75-4.678-10.396-10.43-10.405zm147.066 3.484v16.941h3.416V46.594h4.729v-3.07h-12.877v3.07zm-29.062 16.941v-2.75h-7.145v-6.207h5.512v-2.799h-5.512v-5.4h7.2v-2.854h-10.613v20.01zm-41.483-.002h3.521V43.53h-3.307v15.384L96.23 43.525h-3.586v20.008h3.418V48.317zm59.476.002h3.52l-14-20.01h-3.665v20.01h3.417V48.311zm3.532-20.01h-3.307v11.2l3.307 4.697zm-30.145-23.3L125.643.215h-3.553v20.01h3.416V5.002l10.678 15.223zm.104-20.011h-3.31v11.111l3.31 4.75zm-25.285 63.321h3.31V47.97l6.384 9.107 6.324-9.114V63.53h3.31V43.525h-3.428l-6.234 8.976-6.238-8.976h-3.428zM14.275 54.047v5.848l-.043.025-.08.047c-.979.554-2.42.828-3.696.83-3.934-.006-6.905-3.12-6.909-7.149.004-4.112 2.865-7.387 6.848-7.417v-.008h.033-.002.01c1.577-.002 3.004.473 4.15 1.297l1.866-2.597a10.603 10.603 0 0 0-6.02-1.87c-.078 0-.156.003-.233.005v.002C4.528 43.128 0 47.614 0 53.487.004 59.7 4.668 63.997 10.377 64c3.135-.002 5.661-1.034 7.24-2.683v-7.272l-3.342.002zm64.793-1.245v-6.416H82.2c.233 0 .463.015.686.042 1.695.147 3.024 1.51 3.024 3.173 0 1.5-1.085 2.755-2.544 3.093-.178.05-.355.081-.53.1l.007.008h-3.776zm4.95 2.377c2.894-.51 5.253-2.355 5.253-5.588 0-3.694-2.746-6.07-6.07-6.07h-7.523v20.015h3.39v-10.18l7.194 10.18h3.66l-5.905-8.357zm67.005-46.104c-.834-.32-1.32-.537-2.142-.882-1.094-.458-2.073-1.208-2.07-2.57v-.01l.001-.011c.02-1.506 1.344-2.704 2.795-2.708h.015c1.624-.004 2.587.778 3.328 1.438l1.654-2.362C153.28.698 151.607.002 149.456 0c-3.273.004-6.047 2.382-6.047 5.723.024 2.755.977 4.134 4.407 5.563.737.29 1.375.5 1.939.716 1.27.461 2.28 1.395 2.29 2.814l.002.002v.028c-.006 1.735-1.548 2.962-3.232 2.965h-.003c-1.607 0-2.824-.652-3.723-1.487-.08-.075-.144-.138-.202-.194l-1.745 2.49c1.697 1.633 3.326 2.213 5.78 2.223 3.41-.004 6.577-2.51 6.581-5.946-.01-2.876-1.685-4.74-4.48-5.822m-2.26 24.227-.136-.193-1.268-1.812h-2.506v-4.59h2.963v.002c.639.022 1.29.366 1.718.977.588.837.56 1.897-.01 2.56l1.378 1.968c1.045-.724 1.733-1.843 1.733-3.368 0-2.818-2.094-4.63-4.63-4.63h-5.74v15.27h2.588v-7.768l5.486 7.767h2.753l-4.33-6.183zm-25.461-6.586V24.25h-8.819v15.248h2.916V32.82h3.963v-2.436h-3.963v-3.668z" fill="currentcolor" fill-rule="evenodd"/></symbol><symbol id="instagram" viewBox="0 0 18 18"><title>instagram</title><path d="M9.987.001a58.7 58.7 0 0 1 2.13.028l.187.007.407.018c.958.044 1.612.196 2.184.419a4.41 4.41 0 0 1 1.595 1.038c.5.5.808 1.002 1.038 1.594.222.572.374 1.227.418 2.184.039.85.051 1.187.054 2.946v1.53c-.003 1.759-.015 2.097-.054 2.946-.044.958-.196 1.612-.418 2.184a4.412 4.412 0 0 1-1.038 1.595c-.5.5-1.003.808-1.595 1.038-.572.222-1.226.374-2.184.418-.85.039-1.187.051-2.946.054h-1.53c-1.759-.003-2.096-.015-2.946-.054-.958-.044-1.612-.196-2.184-.418A4.412 4.412 0 0 1 1.51 16.49c-.5-.5-.808-1.003-1.038-1.595-.223-.572-.375-1.226-.419-2.184l-.018-.407-.007-.188C.01 11.62.002 11.126 0 9.986V8.015C.003 6.447.016 6.103.053 5.29c.044-.957.196-1.612.419-2.184A4.412 4.412 0 0 1 1.51 1.51c.5-.5 1.002-.808 1.594-1.038C3.677.25 4.33.098 5.289.054 6.102.017 6.446.004 8.014.001zm-.208 1.621H8.222c-1.703.002-2.024.014-2.859.052-.877.04-1.354.187-1.67.31-.42.163-.72.358-1.036.673-.315.315-.51.615-.673 1.035-.123.317-.27.794-.31 1.671-.01.228-.019.418-.025.607l-.007.192c-.013.452-.018.976-.02 2.06v1.557c.002 1.16.008 1.679.023 2.156l.007.19.022.512c.04.877.187 1.354.31 1.671.163.42.358.72.673 1.035.315.315.615.51 1.035.673.317.123.794.27 1.671.31.797.036 1.126.049 2.635.052h2.004c1.51-.003 1.838-.016 2.635-.052.877-.04 1.354-.187 1.671-.31.42-.163.72-.358 1.035-.673.315-.315.51-.615.673-1.035.123-.317.27-.794.31-1.671.036-.797.049-1.126.052-2.635V7.998a66.57 66.57 0 0 0-.02-1.836l-.006-.192c-.007-.19-.016-.379-.026-.607-.04-.877-.187-1.354-.31-1.67a2.789 2.789 0 0 0-.673-1.036 2.789 2.789 0 0 0-1.035-.673c-.317-.123-.794-.27-1.671-.31a73.01 73.01 0 0 0-.512-.022l-.19-.007a68.06 68.06 0 0 0-2.156-.023zM9 4.38a4.622 4.622 0 1 1 0 9.243A4.622 4.622 0 0 1 9 4.38zM9 6a3 3 0 1 0 0 6 3 3 0 0 0 0-6zm4.804-2.884a1.08 1.08 0 1 1 0 2.16 1.08 1.08 0 0 1 0-2.16z" fill="currentColor" fill-rule="evenodd"/></symbol><symbol id="linkedin" viewBox="0 0 15 14"><title>linkedin</title><path d="M1.748 3.251c1.09 0 1.77-.722 1.77-1.625C3.498.702 2.838 0 1.768 0 .7 0 0 .702 0 1.626 0 2.529.679 3.25 1.728 3.25h.02zM.185 13.945h3.127v-9.41H.185v9.41zm7.985 0V8.69c0-.28.02-.562.103-.763.226-.561.74-1.144 1.604-1.144 1.132 0 1.585.863 1.585 2.128v5.034h3.127V8.55c0-2.89-1.543-4.235-3.6-4.235-1.688 0-2.428.943-2.84 1.585h.02V4.536H5.044c.04.883 0 9.409 0 9.409H8.17z" fill="currentColor" fill-rule="evenodd"/></symbol><symbol id="mail" viewBox="0 0 22 14"><title>mail</title><g stroke="currentColor" stroke-width="2" fill="none" fill-rule="evenodd"><rect x="1" y="1" width="20" height="12" rx="3"/><path d="m1.906 1.97 9.099 5.253m9.09-5.253-9.1 5.253" stroke-linecap="round"/></g></symbol><symbol id="pager-chevron" viewBox="0 0 11 14"><title>pager-chevron</title><path d="m1.5 1 8 5.999L1.5 13" stroke="#F3F4F5" stroke-width="2" fill="none" stroke-linecap="round" stroke-linejoin="round"/></symbol><symbol fill="none" id="plus-thin" viewBox="0 0 22 22"><title>plus-thin</title><path fill-rule="evenodd" clip-rule="evenodd" d="M11 0a1 1 0 0 0-1 1v9H1a1 1 0 1 0 0 2h9v9a1 1 0 1 0 2 0v-9h9a1 1 0 1 0 0-2h-9V1a1 1 0 0 0-1-1Z" fill="currentcolor"/></symbol><symbol id="plus" viewBox="0 0 16 16"><title>plus</title><path d="M8 0a1 1 0 0 1 1 1v5.999L15 7a1 1 0 0 1 0 2H9v6a1 1 0 0 1-2 0V9H1a1 1 0 0 1 0-2h6V1a1 1 0 0 1 1-1z" fill="currentColor" fill-rule="evenodd"/></symbol><symbol fill="none" id="search-button-hover" viewBox="0 0 32 32"><title>search-button-hover</title><rect x="1" y="1" width="30" height="30" rx="15" stroke="#D0006F" stroke-width="2"/><path fill-rule="evenodd" clip-rule="evenodd" d="M18.715 19.883A7.224 7.224 0 0 1 7 14.225 7.224 7.224 0 0 1 14.222 7a7.224 7.224 0 0 1 7.223 7.225 7.197 7.197 0 0 1-1.546 4.469.87.87 0 0 1 .05.046l3.805 3.824a.842.842 0 0 1-1.193 1.188l-3.805-3.824a.858.858 0 0 1-.041-.045Zm1.023-5.657a5.524 5.524 0 1 1-11.047 0 5.524 5.524 0 1 1 11.047 0Z" fill="#fff"/></symbol><symbol fill="none" id="search-button" viewBox="0 0 32 32"><title>search-button</title><rect width="32" height="32" rx="16" fill="#D0006F"/><path fill-rule="evenodd" clip-rule="evenodd" d="M18.715 19.883A7.224 7.224 0 0 1 7 14.225 7.224 7.224 0 0 1 14.222 7a7.224 7.224 0 0 1 7.223 7.225 7.197 7.197 0 0 1-1.546 4.469.87.87 0 0 1 .05.046l3.805 3.824a.842.842 0 0 1-1.193 1.188l-3.805-3.824a.858.858 0 0 1-.041-.045Zm1.023-5.657a5.524 5.524 0 1 1-11.047 0 5.524 5.524 0 1 1 11.047 0Z" fill="#fff"/></symbol><symbol id="search" viewBox="0 0 20 20"><title>search</title><path d="M8.499 0a8.5 8.5 0 0 1 6.679 13.758.453.453 0 0 1 .056.05l4.478 4.498a.995.995 0 0 1 0 1.404.986.986 0 0 1-1.398 0l-4.478-4.499-.05-.056A8.5 8.5 0 1 1 8.499 0zm0 2a6.5 6.5 0 1 0 0 13 6.5 6.5 0 0 0 0-13z" fill="currentColor" fill-rule="evenodd"/></symbol><symbol id="share" viewBox="0 0 22 24"><title>share</title><circle fill="#F3F4F5" transform="matrix(-1 0 0 1 38.01 0)" cx="19.005" cy="3" r="3"/><circle fill="#F3F4F5" transform="matrix(-1 0 0 1 38.01 0)" cx="19.005" cy="21" r="3"/><circle fill="#F3F4F5" transform="matrix(-1 0 0 1 6 0)" cx="3" cy="12" r="3"/><path stroke="#F3F4F5" stroke-width="2" stroke-linecap="square" d="M19.005 3 3.05 12m15.955 9.155L3.05 12"/></symbol><symbol id="soundcloud" viewBox="0 0 26 12"><title>soundcloud</title><path d="M12.938 1.104a.356.356 0 0 0-.352.351L12.44 8.66l.145 2.615c.003.191.16.348.352.348.192 0 .35-.157.352-.35v.002l.157-2.615-.157-7.204a.356.356 0 0 0-.352-.351zm9.864 4.145c-.438 0-.856.089-1.237.248A5.644 5.644 0 0 0 13.9.737c-.241.093-.306.189-.308.376v10.15a.387.387 0 0 0 .345.378l8.865.005a3.198 3.198 0 0 0 0-6.397zM8.844 11.371v-.002l.185-2.712-.185-5.912a.266.266 0 0 0-.263-.262.265.265 0 0 0-.263.262l-.164 5.912.164 2.714c.004.145.12.26.263.26a.265.265 0 0 0 .264-.261zm-2.398.26a.223.223 0 0 0 .22-.217l.214-2.758-.215-5.278a.223.223 0 0 0-.219-.217.222.222 0 0 0-.219.217l-.19 5.278.19 2.76c.005.12.101.215.22.215zm4.304-8.83a.308.308 0 0 0-.308.306l-.138 5.55.138 2.672a.308.308 0 0 0 .615-.002v.002l.155-2.671-.155-5.551a.308.308 0 0 0-.307-.306zm-8.473 8.65c.067 0 .122-.054.13-.128l.276-2.67-.276-2.77c-.008-.074-.062-.127-.13-.127-.069 0-.124.053-.13.127l-.243 2.77.242 2.67c.007.074.062.128.13.128zm2.068.152a.178.178 0 0 0 .174-.172l.246-2.777-.246-2.641a.178.178 0 0 0-.174-.171.177.177 0 0 0-.175.172l-.216 2.64.216 2.777c.006.098.08.172.175.172zm5.316.025a.287.287 0 0 0 .286-.284v.002l.17-2.689-.17-5.76a.287.287 0 0 0-.286-.285.286.286 0 0 0-.286.284l-.15 5.762.15 2.687a.286.286 0 0 0 .287.283zm2.185.01a.334.334 0 0 0 .33-.328v.002-.002l.14-2.652-.14-6.605a.334.334 0 0 0-.33-.329.333.333 0 0 0-.33.33l-.124 6.602.124 2.655c.003.18.151.327.33.327zm-4.336-.012c.13 0 .235-.105.24-.24l.2-2.73-.2-5.719a.244.244 0 0 0-.24-.239.243.243 0 0 0-.242.24l-.177 5.719.177 2.73c.005.133.11.239.241.239zM3.307 5.658a.156.156 0 0 0-.153.15l-.23 2.846.23 2.754c.006.085.072.15.153.15.08 0 .145-.064.152-.15l.26-2.754-.26-2.847c-.007-.085-.073-.15-.152-.15zM5.39 4.164a.2.2 0 0 0-.196.195L4.99 8.655l.204 2.777a.2.2 0 0 0 .196.194c.104 0 .19-.086.197-.195l.23-2.776-.23-4.296a.202.202 0 0 0-.197-.195zM1.364 6.318c-.01-.062-.054-.105-.109-.105s-.1.045-.108.105L.892 8.653l.255 2.284c.007.06.053.105.108.105s.1-.043.108-.105l.291-2.284-.29-2.335zm-1.07.79c-.054 0-.097.041-.104.101L0 8.653l.19 1.42c.007.06.05.101.104.101.053 0 .096-.041.104-.1v-.001l.226-1.42L.398 7.21C.39 7.15.347 7.109.294 7.109z" fill="currentColor" fill-rule="evenodd"/></symbol><symbol id="twitter" viewBox="0 0 18 14"><title>twitter</title><path d="M13.46 10.724c1.78-1.931 2.708-4.446 2.708-6.782 0-.153 0-.305-.01-.457A7.344 7.344 0 0 0 18 1.655a7.63 7.63 0 0 1-2.121.557A3.58 3.58 0 0 0 17.502.256a7.605 7.605 0 0 1-2.345.858C14.013-.05 12.194-.336 10.72.42c-1.473.754-2.234 2.361-1.856 3.92-2.97-.143-5.736-1.486-7.611-3.694-.98 1.615-.48 3.682 1.143 4.719A3.792 3.792 0 0 1 .72 4.92v.045c0 1.683 1.24 3.132 2.963 3.465a3.847 3.847 0 0 1-1.668.061c.484 1.44 1.87 2.427 3.45 2.455A7.624 7.624 0 0 1 .88 12.463a7.85 7.85 0 0 1-.879-.05 10.799 10.799 0 0 0 5.66 1.584c3.396.003 6.023-1.343 7.8-3.273z" fill="currentColor"/></symbol><symbol id="youtube" viewBox="0 0 35 24"><title>youtube</title><path fill="currentColor" fill-rule="evenodd" d="M33.673 3.747c.72 2.675.72 8.253.72 8.253s0 5.578-.72 8.253a4.302 4.302 0 0 1-3.04 3.03C27.942 24 17.195 24 17.195 24S6.449 24 3.76 23.284a4.302 4.302 0 0 1-3.04-3.031C0 17.578 0 12 0 12s0-5.578.72-8.253A4.302 4.302 0 0 1 3.76.717C6.449 0 17.196 0 17.196 0s10.748 0 13.436.716a4.302 4.302 0 0 1 3.041 3.031zm-20.211 13.05 8.988-5.065-8.988-5.065v10.13z"/></symbol></svg>